<svg version="1.1" id="Layer_1" xmlns="http://www.w3.org/2000/svg" xmlns:xlink="http://www.w3.org/1999/xlink" x="0px" y="0px"
	 width="100%" viewBox="0 0 686 686" enable-background="new 0 0 686 686" xml:space="preserve">
<path fill="#0F141A" opacity="1.000000" stroke="none" 
	d="
M687.000000,268.000000 
	C687.000000,408.000000 687.000000,547.500000 687.000000,687.000000 
	C458.333344,687.000000 229.666718,687.000000 1.000049,687.000000 
	C1.000033,458.333374 1.000033,229.666733 1.000016,1.000080 
	C229.666626,1.000053 458.333252,1.000053 686.999939,1.000027 
	C687.000000,89.833336 687.000000,178.666672 687.000000,268.000000 
M185.959991,323.013123 
	C186.532455,323.643127 187.026596,324.673553 187.696671,324.804626 
	C188.591003,324.979553 189.612869,324.399689 190.595612,324.240723 
	C205.841507,321.774872 221.089951,319.324677 237.179611,316.735413 
	C237.179611,315.675476 237.181534,313.554413 237.179321,311.433380 
	C237.149948,283.100189 237.153549,254.766922 237.072281,226.433884 
	C237.043137,216.276260 238.743530,206.465012 243.152298,197.312836 
	C255.725525,171.212051 277.138458,158.520477 305.592377,158.388840 
	C380.257172,158.043396 454.924561,158.273819 529.590454,158.094406 
	C534.374084,158.082916 535.269287,159.885147 534.781250,163.953049 
	C532.047424,186.741013 521.093933,203.946518 500.601501,214.801376 
	C489.861481,220.490387 478.407562,222.369156 466.344452,222.340256 
	C411.845062,222.209671 357.345123,222.302536 302.845398,222.314804 
	C300.742798,222.315277 298.640198,222.314850 296.026062,222.314850 
	C296.026062,225.039795 296.026245,227.005920 296.026031,228.972031 
	C296.022430,263.305206 295.942871,297.638763 296.109924,331.971100 
	C296.131134,336.331909 294.991699,337.656219 290.537445,337.611511 
	C271.374115,337.419250 252.204453,337.433350 233.041809,337.705139 
	C208.803421,338.048859 185.856750,344.006226 164.370544,355.120087 
	C84.463219,396.452698 63.272026,489.097290 103.170868,553.838135 
	C127.617226,593.505493 162.880219,616.843506 209.972137,618.858582 
	C283.576752,622.008118 346.195251,561.577271 347.132263,487.463928 
	C347.448303,462.468384 347.093903,437.464874 347.242828,412.466187 
	C347.265503,408.657959 346.044952,407.669312 342.376740,407.722656 
	C328.546600,407.923859 314.708954,407.983307 300.880920,407.727325 
	C296.741852,407.650696 295.884277,409.107849 295.911133,412.888397 
	C296.078064,436.387268 295.885071,459.889130 296.119263,483.386932 
	C296.265808,498.092804 292.812286,511.800629 285.883118,524.656677 
	C263.485535,566.212036 207.924179,583.661438 166.220352,550.133789 
	C132.919479,523.361633 124.691338,475.497864 147.693375,438.094025 
	C167.971436,405.119720 198.620102,389.204285 236.723755,388.863464 
	C304.717926,388.255310 372.721619,388.667938 440.720856,388.837555 
	C443.191010,388.843750 446.203247,390.208923 448.033386,391.929443 
	C458.473938,401.744751 468.478241,412.024323 478.926117,421.831512 
	C491.635712,433.761841 507.096741,439.476318 524.347961,439.902100 
	C562.170227,440.835602 593.876160,410.681122 595.517944,372.566467 
	C597.142334,334.855957 567.592834,301.707336 530.152466,299.262329 
	C528.586121,299.160034 527.007263,299.249268 525.093933,299.249268 
	C525.093933,312.128510 525.231995,324.276917 525.013000,336.418854 
	C524.943848,340.256866 525.861694,341.724426 529.995117,342.433228 
	C541.852295,344.466339 549.336975,351.866791 551.987244,363.540070 
	C554.594666,375.024872 551.002930,384.647614 541.541504,391.778046 
	C530.487854,400.108429 516.023560,398.815918 505.163910,388.281158 
	C489.255188,372.848419 473.499725,357.254852 457.871674,341.538177 
	C454.906769,338.556427 451.938934,337.416016 447.785400,337.433807 
	C416.286346,337.568756 384.786285,337.488373 353.286591,337.448608 
	C351.374023,337.446198 349.461761,337.216980 347.125854,337.065918 
	C347.125854,334.885925 347.126373,333.249542 347.125732,331.613129 
	C347.118958,314.779907 347.103638,297.946655 347.108856,281.113434 
	C347.111237,273.463318 347.129669,273.469025 354.560425,273.463593 
	C393.393524,273.435272 432.227844,273.589844 471.059418,273.331451 
	C535.154175,272.904968 585.412598,222.697495 586.066467,158.643890 
	C586.223022,143.312332 585.927246,127.975174 586.180176,112.646217 
	C586.252075,108.284737 585.096680,107.027107 580.626343,107.033592 
	C488.126923,107.167732 395.626953,106.982635 303.127808,107.188988 
	C238.142181,107.333954 186.904907,158.063858 186.009247,223.104095 
	C185.554886,256.097443 185.917358,289.102051 185.959991,323.013123 
M185.911774,462.500671 
	C185.898041,469.497192 185.722305,476.498688 185.937332,483.488190 
	C186.048721,487.109009 186.311646,490.888306 187.440796,494.285309 
	C191.443680,506.327728 203.614899,513.227966 216.378769,511.110229 
	C227.974701,509.186279 237.005142,498.732513 237.091339,486.369537 
	C237.265549,461.383392 237.141647,436.395142 237.104935,411.407776 
	C237.103317,410.311401 236.746979,409.215546 236.469925,407.626495 
	C231.757126,408.040070 227.275635,408.212616 222.863235,408.857758 
	C200.644760,412.106232 186.301575,428.549713 185.965775,451.006622 
	C185.913467,454.504242 185.932022,458.002960 185.911774,462.500671 
z"/>
<path fill="#59A3F5" opacity="1.000000" stroke="none" 
	d="
M185.935272,322.557343 
	C185.917358,289.102051 185.554886,256.097443 186.009247,223.104095 
	C186.904907,158.063858 238.142181,107.333954 303.127808,107.188988 
	C395.626953,106.982635 488.126923,107.167732 580.626343,107.033592 
	C585.096680,107.027107 586.252075,108.284737 586.180176,112.646217 
	C585.927246,127.975174 586.223022,143.312332 586.066467,158.643890 
	C585.412598,222.697495 535.154175,272.904968 471.059418,273.331451 
	C432.227844,273.589844 393.393524,273.435272 354.560425,273.463593 
	C347.129669,273.469025 347.111237,273.463318 347.108856,281.113434 
	C347.103638,297.946655 347.118958,314.779907 347.125732,331.613129 
	C347.126373,333.249542 347.125854,334.885925 347.125854,337.065918 
	C349.461761,337.216980 351.374023,337.446198 353.286591,337.448608 
	C384.786285,337.488373 416.286346,337.568756 447.785400,337.433807 
	C451.938934,337.416016 454.906769,338.556427 457.871674,341.538177 
	C473.499725,357.254852 489.255188,372.848419 505.163910,388.281158 
	C516.023560,398.815918 530.487854,400.108429 541.541504,391.778046 
	C551.002930,384.647614 554.594666,375.024872 551.987244,363.540070 
	C549.336975,351.866791 541.852295,344.466339 529.995117,342.433228 
	C525.861694,341.724426 524.943848,340.256866 525.013000,336.418854 
	C525.231995,324.276917 525.093933,312.128510 525.093933,299.249268 
	C527.007263,299.249268 528.586121,299.160034 530.152466,299.262329 
	C567.592834,301.707336 597.142334,334.855957 595.517944,372.566467 
	C593.876160,410.681122 562.170227,440.835602 524.347961,439.902100 
	C507.096741,439.476318 491.635712,433.761841 478.926117,421.831512 
	C468.478241,412.024323 458.473938,401.744751 448.033386,391.929443 
	C446.203247,390.208923 443.191010,388.843750 440.720856,388.837555 
	C372.721619,388.667938 304.717926,388.255310 236.723755,388.863464 
	C198.620102,389.204285 167.971436,405.119720 147.693375,438.094025 
	C124.691338,475.497864 132.919479,523.361633 166.220352,550.133789 
	C207.924179,583.661438 263.485535,566.212036 285.883118,524.656677 
	C292.812286,511.800629 296.265808,498.092804 296.119263,483.386932 
	C295.885071,459.889130 296.078064,436.387268 295.911133,412.888397 
	C295.884277,409.107849 296.741852,407.650696 300.880920,407.727325 
	C314.708954,407.983307 328.546600,407.923859 342.376740,407.722656 
	C346.044952,407.669312 347.265503,408.657959 347.242828,412.466187 
	C347.093903,437.464874 347.448303,462.468384 347.132263,487.463928 
	C346.195251,561.577271 283.576752,622.008118 209.972137,618.858582 
	C162.880219,616.843506 127.617226,593.505493 103.170868,553.838135 
	C63.272026,489.097290 84.463219,396.452698 164.370544,355.120087 
	C185.856750,344.006226 208.803421,338.048859 233.041809,337.705139 
	C252.204453,337.433350 271.374115,337.419250 290.537445,337.611511 
	C294.991699,337.656219 296.131134,336.331909 296.109924,331.971100 
	C295.942871,297.638763 296.022430,263.305206 296.026031,228.972031 
	C296.026245,227.005920 296.026062,225.039795 296.026062,222.314850 
	C298.640198,222.314850 300.742798,222.315277 302.845398,222.314804 
	C357.345123,222.302536 411.845062,222.209671 466.344452,222.340256 
	C478.407562,222.369156 489.861481,220.490387 500.601501,214.801376 
	C521.093933,203.946518 532.047424,186.741013 534.781250,163.953049 
	C535.269287,159.885147 534.374084,158.082916 529.590454,158.094406 
	C454.924561,158.273819 380.257172,158.043396 305.592377,158.388840 
	C277.138458,158.520477 255.725525,171.212051 243.152298,197.312836 
	C238.743530,206.465012 237.043137,216.276260 237.072281,226.433884 
	C237.153549,254.766922 237.149948,283.100189 237.179321,311.433380 
	C237.181534,313.554413 237.179611,315.675476 237.179611,316.735413 
	C221.089951,319.324677 205.841507,321.774872 190.595612,324.240723 
	C189.612869,324.399689 188.591003,324.979553 187.696671,324.804626 
	C187.026596,324.673553 186.532455,323.643127 185.935272,322.557343 
M188.998032,228.750153 
	C188.998016,229.499878 188.998001,230.249603 188.595230,231.719849 
	C188.729324,238.480164 188.863419,245.240479 188.997543,252.857544 
	C188.997620,254.571548 188.997696,256.285553 188.603973,258.682343 
	C188.410385,261.120972 188.216812,263.559601 188.016586,266.885681 
	C188.016586,274.257019 188.016602,281.628357 188.011459,289.666565 
	C188.014114,290.111084 188.016754,290.555603 188.013794,291.921387 
	C188.016129,295.614258 188.018463,299.307129 188.012054,303.749939 
	C188.015289,304.499878 188.018524,305.249847 188.020523,306.666992 
	C188.020447,307.111786 188.020370,307.556610 188.010132,308.871155 
	C188.338348,311.580933 188.666565,314.290741 188.996490,317.667419 
	C188.998627,318.112030 189.000748,318.556610 189.171112,319.620941 
	C190.447754,320.082550 191.724396,320.544159 193.729935,320.948395 
	C195.153717,320.629883 196.577499,320.311401 198.742081,319.979431 
	C200.494568,319.319794 202.247070,318.660156 204.796875,317.928192 
	C207.198212,317.616364 209.599533,317.304535 212.750610,316.995819 
	C213.500336,316.993683 214.250076,316.991547 215.862869,316.983154 
	C220.641571,316.647308 225.476547,316.632812 230.170105,315.810760 
	C231.942154,315.500427 233.387238,313.323059 234.991272,311.060455 
	C234.988434,301.040253 234.985596,291.020020 234.985748,280.249817 
	C234.985672,279.499786 234.985580,278.749786 234.992386,277.062683 
	C234.989746,265.042023 234.987106,253.021378 234.988266,240.167175 
	C234.986588,238.777939 234.984909,237.388687 234.990906,235.091537 
	C234.988113,232.061203 234.985306,229.030869 234.987152,225.114532 
	C235.317902,221.743576 235.648651,218.372604 235.987335,214.334000 
	C235.987442,213.888855 235.987549,213.443726 235.990906,212.198730 
	C235.993683,211.132248 235.996460,210.065781 236.457291,208.491165 
	C236.970108,206.993820 237.482925,205.496475 238.192581,203.282730 
	C241.150070,191.587112 248.340942,182.606552 256.934326,174.648636 
	C261.394775,170.518036 266.302734,166.870697 271.720642,162.848969 
	C274.147278,161.900742 276.573944,160.952515 279.741669,159.986099 
	C281.494446,159.324066 283.247223,158.662033 285.790833,157.998810 
	C287.527222,157.666077 289.263611,157.333344 291.875244,156.997833 
	C302.661316,156.664810 313.446655,156.075958 324.233582,156.044495 
	C364.155212,155.928009 404.077393,155.995468 444.666504,155.995972 
	C445.111267,155.995148 445.556000,155.994339 446.937988,155.995071 
	C468.625183,155.994797 490.312408,155.994522 512.907898,155.996902 
	C515.938782,155.995071 518.969727,155.993240 522.925415,155.993164 
	C525.418884,155.996857 527.916565,156.094147 530.404968,155.983963 
	C535.026062,155.779388 537.205933,157.854843 537.015320,162.523132 
	C536.900085,165.344299 536.997864,168.174179 536.645630,171.441467 
	C536.432007,171.961166 536.218445,172.480865 536.002686,173.667114 
	C536.001770,174.111465 536.000854,174.555832 535.613281,175.585464 
	C534.744629,178.056458 533.875977,180.527451 532.982178,183.773972 
	C532.403198,185.663528 532.330200,187.976562 531.161682,189.372711 
	C524.450073,197.391846 519.920959,206.928299 510.060211,212.702423 
	C496.703857,220.523483 482.876343,224.952621 467.584839,224.972687 
	C413.945099,225.043076 360.305176,224.996857 306.665344,225.004303 
	C299.284698,225.005341 299.006805,225.277695 299.004425,232.547836 
	C298.993561,265.697937 299.007355,298.848022 298.990845,331.998108 
	C298.987549,338.671722 297.795135,339.944427 291.186279,339.978210 
	C277.859955,340.046326 264.529022,340.209778 251.207275,339.954376 
	C228.601837,339.520996 206.240631,340.993439 184.991364,349.371918 
	C174.996582,353.312836 164.917496,357.611389 155.932877,363.390137 
	C145.940918,369.816711 136.844360,377.766174 127.910339,385.676483 
	C114.235809,397.784119 104.261803,412.764069 97.757072,429.738953 
	C93.755051,440.182739 89.089317,450.540894 88.570671,462.119965 
	C88.260452,469.045807 86.387665,475.907593 86.154816,482.829681 
	C85.694511,496.513885 89.009071,509.756439 92.069901,523.778198 
	C94.380028,529.186279 96.690163,534.594360 99.174690,540.668579 
	C101.822937,545.523743 104.375458,550.434692 107.159813,555.210510 
	C108.553833,557.601624 110.370636,559.746338 112.173119,562.670166 
	C115.113960,565.781616 118.054802,568.893066 121.169617,572.666687 
	C124.807198,576.461731 128.065704,580.741333 132.164093,583.947327 
	C139.852264,589.961426 148.026306,595.354431 156.388733,601.582581 
	C164.925583,605.054260 173.462433,608.525879 182.665985,611.999756 
	C183.110443,612.000977 183.554916,612.002197 184.568573,612.492493 
	C189.691360,613.642639 194.778412,615.530457 199.944794,615.780701 
	C209.122101,616.225220 218.352341,615.812561 227.550522,615.481934 
	C231.619537,615.335693 235.758499,614.893921 239.699127,613.915466 
	C246.534348,612.218323 253.240021,609.999573 260.752869,607.933777 
	C264.502319,606.289185 268.251770,604.644592 272.690033,602.845703 
	C278.793762,598.897949 284.897522,594.950195 291.664429,590.828003 
	C295.110138,587.885376 298.555847,584.942749 302.562897,581.635620 
	C307.041931,576.423889 311.520966,571.212158 316.537933,565.608276 
	C323.304474,558.045898 328.668732,549.636841 332.476898,539.453430 
	C334.982971,532.635925 337.489044,525.818481 339.998657,518.334229 
	C340.000397,517.889709 340.002106,517.445129 340.403412,516.460510 
	C340.931366,514.973877 341.459351,513.487183 342.064087,511.201050 
	C342.709686,504.800690 343.355286,498.400360 344.403717,491.280945 
	C344.597046,485.854004 344.790375,480.427094 344.988068,474.111816 
	C344.985291,471.741241 344.982513,469.370697 344.988708,466.250153 
	C344.985992,465.500122 344.983276,464.750092 344.986359,463.083893 
	C344.983643,459.722412 344.980927,456.360962 344.988861,452.063629 
	C344.659515,446.042419 344.330200,440.021179 344.000946,433.333313 
	C344.000977,432.888885 344.001038,432.444458 344.325897,431.545959 
	C344.217682,430.697296 344.109436,429.848602 344.000824,428.083801 
	C344.000549,424.722534 344.000275,421.361267 344.325348,417.546143 
	C344.218414,416.697174 344.111481,415.848206 343.926575,414.252533 
	C342.116638,412.862823 340.491943,410.879517 338.447418,410.241638 
	C336.164276,409.529297 333.500122,410.038269 330.201355,410.008850 
	C329.134216,410.011627 328.067078,410.014435 326.062805,410.011963 
	C319.042267,410.012878 312.021698,410.013794 304.279114,410.023590 
	C302.852448,410.679504 301.425751,411.335388 299.594452,412.712585 
	C299.395752,414.512909 299.033081,416.312500 299.024994,418.113678 
	C298.972748,429.742157 298.997955,441.371033 298.644989,453.519348 
	C298.762939,454.679565 298.880859,455.839783 298.998749,457.916138 
	C298.998779,461.277405 298.998779,464.638702 298.647064,468.440887 
	C298.441406,468.960724 298.235748,469.480591 298.020752,470.921692 
	C298.023621,474.615051 298.026489,478.308441 298.015320,482.800964 
	C298.019653,483.866699 298.024017,484.932465 298.022369,486.748657 
	C298.022461,487.499146 298.022522,488.249603 298.011169,489.892975 
	C296.339478,499.592072 294.667816,509.291138 292.619263,519.545776 
	C292.076538,521.028992 291.533783,522.512207 290.318481,524.180176 
	C288.337677,527.078918 286.580048,530.165588 284.329468,532.837036 
	C279.692352,538.341309 274.791992,543.623840 269.467133,549.416626 
	C267.974823,551.275940 266.482513,553.135254 264.289978,555.154907 
	C258.878571,557.979919 253.507782,560.886719 248.040588,563.599243 
	C244.770599,565.221741 241.349747,566.540100 237.140182,567.995605 
	C235.426605,568.004395 233.713043,568.013184 231.451172,568.155151 
	C230.967285,568.435669 230.483398,568.716125 229.113098,568.998047 
	C225.307022,569.331665 221.506363,569.853577 217.693848,569.963318 
	C206.552155,570.284302 195.423447,569.446533 184.978729,565.516602 
	C177.781174,562.808411 170.690735,559.247803 164.417053,554.838013 
	C159.706070,551.526611 156.158722,546.428711 152.464890,541.827820 
	C144.104523,531.414490 136.845398,520.505737 134.606949,506.796204 
	C132.392136,493.231415 131.004135,479.762299 134.211990,466.231140 
	C138.455933,448.329529 145.731201,431.825012 159.052582,418.811829 
	C166.026962,411.998779 173.381805,404.937836 181.864212,400.438629 
	C199.533386,391.066589 218.548492,385.691315 238.985153,385.908112 
	C271.420288,386.252136 303.861786,385.999756 336.300568,386.000061 
	C370.122620,386.000336 403.945648,385.882599 437.765350,386.165314 
	C441.594940,386.197296 446.322021,387.458801 449.063873,389.907288 
	C459.957428,399.635162 470.165039,410.127167 480.778809,420.175446 
	C483.150940,422.421173 485.893005,424.703430 488.891479,425.776947 
	C496.663788,428.559479 504.682861,430.648651 512.583862,433.078278 
	C515.109192,433.854828 517.518982,435.065369 520.078735,435.657227 
	C523.327759,436.408386 526.663513,436.989288 529.985352,437.145996 
	C532.085022,437.245056 534.216248,436.167664 536.352661,436.077850 
	C548.633484,435.561646 558.487793,429.102020 567.850464,422.347321 
	C575.971191,416.488647 581.290283,408.104797 585.810425,398.894348 
	C594.533936,381.119049 594.265076,363.507019 587.745178,345.451874 
	C580.470581,325.306854 565.182861,314.144562 545.522339,307.845062 
	C542.416565,306.849915 539.532349,305.180878 536.465332,304.039368 
	C535.108276,303.534332 533.005188,302.877991 532.205383,303.510345 
	C530.820679,304.605194 529.438599,306.618988 529.368103,308.302277 
	C529.059082,315.689331 528.895020,323.116852 529.364746,330.485931 
	C529.564819,333.624786 530.913757,338.892456 532.666565,339.310608 
	C537.598999,340.487122 540.773499,343.379639 544.315430,346.428558 
	C554.319458,355.040222 558.270447,365.990417 554.658813,378.344330 
	C552.916931,384.302582 548.437988,390.298401 543.565125,394.276825 
	C538.296082,398.578735 531.802002,403.555511 523.761353,399.083221 
	C523.386108,398.874451 522.760620,399.001831 522.282349,399.109222 
	C516.482544,400.411530 511.932373,397.964355 507.798035,394.295929 
	C501.847015,389.015533 495.851837,383.782654 489.989899,378.404755 
	C484.255585,373.143890 478.502197,367.886139 473.055420,362.334442 
	C467.364655,356.534119 461.870667,350.520264 456.601593,344.334839 
	C453.692383,340.919617 450.297485,339.939392 446.040131,339.955688 
	C421.048828,340.051239 396.056976,340.000824 371.065308,340.003143 
	C364.002228,340.003784 356.938904,339.984680 349.876160,340.036102 
	C346.188049,340.062927 345.025970,338.116760 344.972839,334.680573 
	C344.718140,318.210175 344.227570,301.743011 344.034027,285.272217 
	C343.872223,271.500397 344.473694,271.008636 358.240631,271.004852 
	C396.727783,270.994293 435.215363,271.097382 473.701843,270.935242 
	C484.017303,270.891815 494.355133,269.948639 504.016357,265.907440 
	C509.655975,263.548431 514.962952,260.406372 520.523376,257.841614 
	C524.246399,256.124359 528.702637,255.532806 531.860840,253.151291 
	C538.449402,248.183136 544.945129,242.860519 550.463989,236.764633 
	C557.188782,229.336945 562.869934,220.964386 569.466797,212.488861 
	C572.644531,204.992569 575.822266,197.496277 579.391785,189.358795 
	C580.262329,184.239426 581.132812,179.120041 582.384338,173.390823 
	C582.914856,171.260696 583.445435,169.130585 583.983459,166.084274 
	C583.985901,162.722855 583.988403,159.361435 583.995056,155.078857 
	C583.993652,151.385941 583.992249,147.693008 583.993408,143.062836 
	C583.992371,135.708572 583.991333,128.354309 583.994507,120.100632 
	C584.000549,109.130676 583.877563,109.004745 572.810669,109.004585 
	C483.443420,109.003288 394.076141,108.967911 304.709076,109.088829 
	C299.138519,109.096367 293.569641,110.333572 287.166687,110.998856 
	C285.777863,111.001656 284.389008,111.004463 282.226532,111.071320 
	C273.450439,113.873642 264.251984,115.794434 256.022369,119.737358 
	C248.470306,123.355659 241.962875,129.154297 234.496674,133.996338 
	C234.496674,133.996338 233.998169,134.001709 233.310623,134.152786 
	C231.642914,135.169754 229.665924,135.891159 228.361816,137.255661 
	C223.130997,142.728699 218.108719,148.401047 212.717621,154.644516 
	C211.475266,157.760986 210.232910,160.877457 208.316986,164.171982 
	C206.047455,166.257950 203.134811,167.968338 201.649261,170.512146 
	C198.982986,175.077774 197.174179,180.144180 195.004089,185.800323 
	C195.001648,186.865677 194.999207,187.931030 194.443497,189.211624 
	C193.969254,189.807327 193.495010,190.403030 193.012283,191.898499 
	C193.004974,194.597473 192.997665,197.296448 192.366486,200.324081 
	C191.912003,201.882065 191.457520,203.440048 190.998535,205.664093 
	C190.996368,206.108154 190.994202,206.552200 190.331360,207.384109 
	C189.886978,214.256210 189.442612,221.128311 188.998032,228.750153 
z"/>
<path fill="#59A4F8" opacity="1.000000" stroke="none" 
	d="
M185.914795,462.000916 
	C185.932022,458.002960 185.913467,454.504242 185.965775,451.006622 
	C186.301575,428.549713 200.644760,412.106232 222.863235,408.857758 
	C227.275635,408.212616 231.757126,408.040070 236.469925,407.626495 
	C236.746979,409.215546 237.103317,410.311401 237.104935,411.407776 
	C237.141647,436.395142 237.265549,461.383392 237.091339,486.369537 
	C237.005142,498.732513 227.974701,509.186279 216.378769,511.110229 
	C203.614899,513.227966 191.443680,506.327728 187.440796,494.285309 
	C186.311646,490.888306 186.048721,487.109009 185.937332,483.488190 
	C185.722305,476.498688 185.898041,469.497192 185.914795,462.000916 
z"/>
<path fill="#59A5FC" opacity="1.000000" stroke="none" 
	d="
M298.022583,489.000092 
	C298.022522,488.249603 298.022461,487.499146 298.305817,486.239319 
	C298.402618,484.487244 298.215973,483.244537 298.029327,482.001801 
	C298.026489,478.308441 298.023621,474.615051 298.250427,470.384888 
	C298.653015,469.232056 298.825897,468.616028 298.998779,467.999969 
	C298.998779,464.638702 298.998779,461.277405 299.176025,457.198517 
	C299.234802,455.320526 299.116272,454.160126 298.997742,452.999756 
	C298.997955,441.371033 298.972748,429.742157 299.024994,418.113678 
	C299.033081,416.312500 299.395752,414.512909 300.174011,412.351196 
	C302.169434,411.331421 303.585297,410.673065 305.001160,410.014709 
	C312.021698,410.013794 319.042267,410.012878 326.665344,410.296631 
	C328.512512,410.392761 329.757141,410.204224 331.001770,410.015717 
	C333.500122,410.038269 336.164276,409.529297 338.447418,410.241638 
	C340.491943,410.879517 342.116638,412.862823 343.801941,414.852570 
	C343.784882,416.301727 343.892426,417.150879 344.000000,418.000000 
	C344.000275,421.361267 344.000549,424.722534 343.838074,428.768799 
	C343.783875,430.302551 343.892456,431.151276 344.001038,432.000031 
	C344.001038,432.444458 344.000977,432.888885 343.798798,434.026367 
	C343.402344,439.434052 343.049438,444.150757 343.111694,448.861969 
	C343.130035,450.249115 344.323364,451.620728 344.978210,452.999481 
	C344.980927,456.360962 344.983643,459.722412 344.720520,463.653687 
	C344.629700,465.149017 344.804718,466.074585 344.979736,467.000122 
	C344.982513,469.370697 344.985291,471.741241 344.681061,474.713379 
	C344.249664,480.876617 344.125275,486.438293 344.000854,492.000000 
	C343.355286,498.400360 342.709686,504.800690 341.738007,511.725037 
	C340.942566,513.832886 340.473206,515.416748 340.003845,517.000610 
	C340.002106,517.445129 340.000397,517.889709 339.680176,518.791504 
	C335.663635,522.781250 331.219330,524.059326 326.163422,524.194641 
	C324.809448,524.230835 323.019958,525.793030 322.333527,527.121460 
	C321.820190,528.114990 322.353973,530.688904 323.143433,531.072266 
	C324.322327,531.644714 326.155731,531.004883 327.673370,530.696960 
	C328.707581,530.487183 329.678040,529.963318 330.902130,529.493530 
	C331.301361,533.316162 331.650421,536.658081 331.999451,540.000000 
	C328.668732,549.636841 323.304474,558.045898 315.925476,565.895264 
	C312.749451,566.750061 310.185883,567.317871 308.622620,567.664124 
	C306.951752,570.849854 305.363953,573.679749 303.973419,576.603394 
	C303.154480,578.325378 302.648407,580.196228 302.001587,582.000061 
	C298.555847,584.942749 295.110138,587.885376 290.947083,590.925659 
	C287.642120,592.014709 285.120728,593.268799 282.452698,593.941101 
	C277.366943,595.222473 274.134796,598.423950 272.001221,603.000000 
	C268.251770,604.644592 264.502319,606.289185 260.125366,607.740601 
	C257.399200,607.642578 255.222260,607.417847 253.220337,607.908020 
	C250.220932,608.642273 246.784485,611.427124 244.521530,610.608826 
	C237.939682,608.228638 230.365372,610.229065 224.316315,605.527466 
	C222.882568,604.413086 219.976273,605.142761 217.746262,605.117065 
	C215.332123,605.089294 212.787888,605.665161 210.534485,605.078491 
	C207.716583,604.344910 205.741058,603.920837 204.921219,607.486755 
	C204.350891,609.967285 202.968826,610.198792 200.958023,608.605469 
	C195.802887,604.520630 191.469635,605.861084 189.670410,611.996216 
	C187.780106,612.003479 185.889740,612.003479 183.999374,612.003418 
	C183.554916,612.002197 183.110443,612.000977 182.213623,611.688110 
	C178.900970,608.195374 176.296570,605.389587 171.189362,605.106750 
	C166.065689,604.823120 161.057236,602.458374 155.998291,601.005737 
	C148.026306,595.354431 139.852264,589.961426 132.164093,583.947327 
	C128.065704,580.741333 124.807198,576.461731 121.464386,572.323547 
	C122.727364,571.769836 124.352898,571.824829 124.561768,571.307617 
	C126.573204,566.327332 133.344681,565.634155 134.645126,559.859070 
	C134.899872,558.727722 137.829147,557.312439 139.319534,557.517883 
	C143.190872,558.051514 145.001663,556.147888 146.064987,553.069885 
	C147.231689,549.692627 148.090912,546.209167 148.961914,543.194824 
	C146.562820,541.553040 144.454254,540.110107 142.346191,538.667480 
	C137.737183,541.902954 137.737183,541.902954 127.416023,533.770264 
	C128.105011,532.628052 128.813049,531.454285 129.671982,530.030334 
	C128.633667,529.524475 127.950027,528.985168 127.196877,528.858215 
	C122.481911,528.063293 117.762642,527.271301 113.020149,526.674072 
	C111.308823,526.458557 108.886841,526.137268 107.968643,527.050354 
	C107.114937,527.899231 107.831055,530.326782 107.856033,532.059326 
	C109.622681,531.745972 111.409767,531.097839 113.150795,531.204102 
	C115.324402,531.336792 118.442642,531.396729 119.387589,532.734802 
	C120.900032,534.876404 121.811691,538.166931 121.437706,540.748840 
	C120.853523,544.781738 120.882133,547.716309 127.726936,548.656555 
	C121.458244,551.148376 119.632607,554.671875 120.342926,557.949768 
	C116.912102,559.615601 114.454178,560.809021 111.996246,562.002441 
	C110.370636,559.746338 108.553833,557.601624 107.159813,555.210510 
	C104.375458,550.434692 101.822937,545.523743 99.285240,540.033203 
	C102.781006,535.841309 103.285889,531.123291 101.042068,527.587219 
	C99.485016,525.133423 95.115822,524.464111 92.003052,522.997559 
	C89.009071,509.756439 85.694511,496.513885 86.154816,482.829681 
	C86.387665,475.907593 88.260452,469.045807 88.570671,462.119965 
	C89.089317,450.540894 93.755051,440.182739 97.757072,429.738953 
	C104.261803,412.764069 114.235809,397.784119 127.910339,385.676483 
	C136.844360,377.766174 145.940918,369.816711 155.932877,363.390137 
	C164.917496,357.611389 174.996582,353.312836 184.991364,349.371918 
	C206.240631,340.993439 228.601837,339.520996 251.207275,339.954376 
	C264.529022,340.209778 277.859955,340.046326 291.186279,339.978210 
	C297.795135,339.944427 298.987549,338.671722 298.990845,331.998108 
	C299.007355,298.848022 298.993561,265.697937 299.004425,232.547836 
	C299.006805,225.277695 299.284698,225.005341 306.665344,225.004303 
	C360.305176,224.996857 413.945099,225.043076 467.584839,224.972687 
	C482.876343,224.952621 496.703857,220.523483 510.060211,212.702423 
	C519.920959,206.928299 524.450073,197.391846 531.161682,189.372711 
	C532.330200,187.976562 532.403198,185.663528 533.302734,183.275787 
	C534.976562,182.440460 536.329834,182.103302 537.683105,181.766144 
	C537.472717,183.055618 537.352295,184.367874 537.032898,185.629776 
	C536.394592,188.151459 535.647278,190.645523 534.944946,193.151001 
	C535.457031,193.414932 535.969055,193.678864 536.481140,193.942795 
	C538.870544,189.788025 541.318604,185.663849 543.536255,181.419342 
	C543.710388,181.086090 542.372986,179.797699 541.575195,179.155563 
	C539.770874,177.703217 537.864746,176.377457 536.000000,175.000183 
	C536.000854,174.555832 536.001770,174.111465 536.231934,173.259033 
	C536.640808,172.234009 536.820435,171.617081 537.000000,171.000137 
	C536.997864,168.174179 536.900085,165.344299 537.015320,162.523132 
	C537.205933,157.854843 535.026062,155.779388 530.404968,155.983963 
	C527.916565,156.094147 525.418884,155.996857 522.276855,155.668854 
	C518.279114,153.492371 515.003723,152.733322 511.999603,155.994247 
	C490.312408,155.994522 468.625183,155.994797 446.385651,155.773468 
	C445.221985,155.699158 444.610687,155.846481 443.999359,155.993805 
	C404.077393,155.995468 364.155212,155.928009 324.233582,156.044495 
	C313.446655,156.075958 302.661316,156.664810 291.132385,156.811310 
	C288.592987,157.083176 286.796509,157.541595 285.000000,158.000000 
	C283.247223,158.662033 281.494446,159.324066 279.086609,159.852600 
	C275.957214,160.814423 273.482880,161.909744 271.008545,163.005066 
	C266.302734,166.870697 261.394775,170.518036 256.934326,174.648636 
	C248.340942,182.606552 241.150070,191.587112 237.771423,203.736725 
	C236.899902,205.793594 236.449570,207.396439 235.999237,208.999298 
	C235.996460,210.065781 235.993683,211.132248 235.769348,212.682587 
	C235.691650,213.778168 235.835541,214.389908 235.979401,215.001648 
	C235.648651,218.372604 235.317902,221.743576 234.662643,225.744110 
	C232.494415,229.720245 231.741592,232.993698 234.983231,235.999451 
	C234.984909,237.388687 234.986588,238.777939 234.656342,240.778854 
	C233.895447,242.418396 233.103867,243.442719 233.093796,244.474670 
	C232.996841,254.415558 232.963104,264.358765 233.114990,274.298218 
	C233.133972,275.541290 234.333145,276.766357 234.985489,277.999756 
	C234.985580,278.749786 234.985672,279.499786 234.654190,280.769531 
	C233.593140,283.181061 232.245636,285.073029 232.245941,286.964752 
	C232.246994,293.575592 232.593216,300.195251 233.083130,306.791138 
	C233.214783,308.563599 234.321976,310.263550 234.981354,311.996796 
	C233.387238,313.323059 231.942154,315.500427 230.170105,315.810760 
	C225.476547,316.632812 220.641571,316.647308 215.320007,316.722046 
	C213.851715,316.638214 212.926285,316.815460 212.000870,316.992706 
	C209.599533,317.304535 207.198212,317.616364 204.122391,317.823669 
	C201.632355,318.477081 199.816818,319.234985 198.001266,319.992920 
	C196.577499,320.311401 195.153717,320.629883 193.128326,320.756104 
	C191.352112,320.042908 190.177505,319.522064 189.002869,319.001221 
	C189.000748,318.556610 188.998627,318.112030 189.192017,316.997009 
	C188.931793,313.551544 188.476059,310.776459 188.020325,308.001404 
	C188.020370,307.556610 188.020447,307.111786 188.283752,306.221588 
	C188.371597,304.850800 188.196198,303.925385 188.020813,303.000000 
	C188.018463,299.307129 188.016129,295.614258 188.235748,291.376709 
	C188.310654,290.221222 188.163620,289.610474 188.016602,288.999695 
	C188.016602,281.628357 188.016586,274.257019 188.333740,266.265869 
	C188.766510,263.097198 188.882141,260.548401 188.997772,257.999573 
	C188.997696,256.285553 188.997620,254.571548 189.199982,252.069275 
	C189.267609,244.520447 189.132812,237.759888 188.998001,230.999329 
	C188.998001,230.249603 188.998016,229.499878 189.238052,228.101929 
	C190.157333,225.594345 191.364929,223.748657 191.413391,221.873016 
	C191.541351,216.921036 191.166626,211.956055 190.992035,206.996262 
	C190.994202,206.552200 190.996368,206.108154 191.313583,205.168060 
	C192.082550,203.113144 192.536453,201.554291 192.990372,199.995422 
	C192.997665,197.296448 193.004974,194.597473 193.291351,191.340347 
	C194.045868,190.186920 194.521317,189.591644 194.996765,188.996384 
	C194.999207,187.931030 195.001648,186.865677 195.340042,185.311707 
	C203.620605,179.946228 211.784378,175.274475 214.799133,165.286774 
	C212.398468,164.752441 210.694519,164.373184 208.990570,163.993927 
	C210.232910,160.877457 211.475266,157.760986 213.241760,154.332642 
	C215.672180,154.885941 217.582352,155.742645 219.483673,156.618561 
	C221.550613,157.570816 223.538284,159.091019 225.688995,159.368774 
	C228.605331,159.745377 231.643814,159.176178 235.739212,158.951950 
	C237.734818,156.351135 236.704208,152.520325 235.756882,148.378723 
	C234.686066,143.697235 234.544083,138.803268 233.998169,134.001709 
	C233.998169,134.001709 234.496674,133.996338 235.105408,133.914474 
	C238.540436,132.494308 241.317459,131.031693 244.218369,129.881622 
	C245.310760,129.448547 246.690216,129.739639 247.938812,129.700592 
	C247.973572,130.910995 248.174637,132.148499 247.983505,133.322113 
	C247.860229,134.079147 247.120071,134.720215 246.728516,135.451874 
	C245.374115,137.982788 247.292465,141.534546 250.031219,141.339798 
	C253.318146,141.106094 256.584290,140.580154 259.225708,140.258041 
	C261.815033,136.270050 264.404510,132.281830 267.485291,127.536934 
	C256.876984,128.738037 256.271423,128.445862 256.163422,122.658020 
	C259.737152,123.328598 263.299530,124.705948 266.754425,124.475060 
	C271.634918,124.148911 273.978729,125.463264 274.204529,130.539536 
	C274.262787,131.850174 275.618774,133.690079 276.823914,134.170929 
	C277.734344,134.534195 279.353912,133.120132 281.180847,132.247238 
	C279.413330,130.581268 278.073822,129.738129 277.373840,128.525726 
	C276.817963,127.562920 276.708466,125.168983 276.973267,125.078072 
	C282.952484,123.025238 283.463806,118.913353 281.768982,113.655037 
	C281.549927,112.975327 282.559662,111.899559 283.000183,111.007263 
	C284.389008,111.004463 285.777863,111.001656 287.918243,111.195068 
	C292.434235,111.700035 296.202911,112.302307 299.962158,112.248520 
	C305.550934,112.168541 311.128937,111.452492 316.718994,111.317390 
	C325.788025,111.098190 334.863037,111.104019 343.935730,111.075851 
	C346.086823,111.069168 348.377563,110.873642 350.362640,111.513733 
	C355.205078,113.075218 359.833160,114.396912 364.710785,111.499718 
	C365.822113,110.839615 367.627441,111.233467 369.102966,111.319595 
	C378.102448,111.844902 387.093689,112.549599 396.099030,112.915703 
	C399.550140,113.056007 403.031158,112.244492 406.498535,112.244598 
	C415.898468,112.244888 425.310120,112.764275 434.692749,112.417999 
	C438.580017,112.274536 441.141327,113.267174 441.826477,116.816765 
	C442.848816,122.113152 445.520203,125.775284 450.631012,128.056412 
	C451.462860,126.193100 452.294556,124.330116 452.859894,123.063797 
	C458.607391,124.058449 463.819580,125.159058 469.088745,125.657318 
	C469.875336,125.731712 470.929504,122.976700 471.859894,121.530624 
	C470.605469,121.009354 469.378082,120.134933 468.091278,120.036369 
	C464.878571,119.790283 461.571594,120.249954 458.449310,119.655182 
	C457.459351,119.466614 456.683441,116.894287 456.356689,115.300644 
	C456.266113,114.858978 458.155121,113.420288 459.109894,113.444946 
	C471.475891,113.764214 483.840057,114.614159 496.197968,114.512383 
	C500.010071,114.480988 503.743866,115.416527 508.029572,114.111290 
	C512.781738,112.664009 519.325134,111.348282 523.862305,116.529976 
	C526.380615,119.406052 529.116516,119.833527 532.778320,118.543762 
	C537.660950,116.824020 542.228699,119.892570 544.291809,124.794342 
	C544.909668,126.262260 547.384583,127.783546 549.040283,127.819351 
	C553.574463,127.917412 558.141235,127.360619 562.657959,126.775894 
	C563.710999,126.639572 564.616455,125.362938 565.589783,124.610977 
	C564.801331,123.739990 564.145020,122.331230 563.199646,122.098885 
	C560.367859,121.402908 557.428101,121.127121 554.521301,120.760216 
	C549.550537,120.132790 544.283508,120.145340 541.299622,114.237160 
	C542.493347,113.985313 543.226562,113.698906 543.960999,113.695602 
	C553.604492,113.652184 563.248352,113.664558 572.891602,113.596832 
	C573.483948,113.592667 574.072571,113.035553 574.662659,112.735054 
	C578.933533,110.559837 580.931946,111.615112 581.965942,116.300232 
	C582.326965,117.936073 583.297913,119.437317 583.990234,121.000031 
	C583.991333,128.354309 583.992371,135.708572 583.664734,143.722244 
	C581.471802,148.371811 580.625244,152.304611 583.990845,156.000015 
	C583.988403,159.361435 583.985901,162.722855 583.662964,166.677322 
	C582.896118,169.513809 582.449707,171.757233 582.003296,174.000671 
	C581.132812,179.120041 580.262329,184.239426 578.848206,189.772339 
	C575.489380,191.692688 573.300232,192.662033 571.056213,188.679016 
	C570.147705,187.066528 566.001587,186.449844 563.548096,186.822784 
	C561.869202,187.077957 559.883545,189.604645 559.264099,191.514481 
	C558.380188,194.239960 558.621460,197.330353 558.442139,199.528885 
	C561.146484,199.119461 564.173889,198.661148 568.012268,198.080032 
	C567.767700,198.490540 567.971130,197.716660 568.465332,197.407837 
	C569.559998,196.723648 570.800659,196.273071 571.981812,195.727203 
	C571.937622,197.222168 572.180725,198.806686 571.752197,200.181885 
	C571.445251,201.166534 570.044312,201.755005 569.468811,202.721191 
	C567.499695,206.027237 564.307861,209.364578 569.002441,213.000504 
	C562.869934,220.964386 557.188782,229.336945 550.463989,236.764633 
	C544.945129,242.860519 538.449402,248.183136 531.860840,253.151291 
	C528.702637,255.532806 524.246399,256.124359 520.523376,257.841614 
	C514.962952,260.406372 509.655975,263.548431 504.016357,265.907440 
	C494.355133,269.948639 484.017303,270.891815 473.701843,270.935242 
	C435.215363,271.097382 396.727783,270.994293 358.240631,271.004852 
	C344.473694,271.008636 343.872223,271.500397 344.034027,285.272217 
	C344.227570,301.743011 344.718140,318.210175 344.972839,334.680573 
	C345.025970,338.116760 346.188049,340.062927 349.876160,340.036102 
	C356.938904,339.984680 364.002228,340.003784 371.065308,340.003143 
	C396.056976,340.000824 421.048828,340.051239 446.040131,339.955688 
	C450.297485,339.939392 453.692383,340.919617 456.601593,344.334839 
	C461.870667,350.520264 467.364655,356.534119 473.055420,362.334442 
	C478.502197,367.886139 484.255585,373.143890 489.989899,378.404755 
	C495.851837,383.782654 501.847015,389.015533 507.798035,394.295929 
	C511.932373,397.964355 516.482544,400.411530 522.282349,399.109222 
	C522.760620,399.001831 523.386108,398.874451 523.761353,399.083221 
	C531.802002,403.555511 538.296082,398.578735 543.565125,394.276825 
	C548.437988,390.298401 552.916931,384.302582 554.658813,378.344330 
	C558.270447,365.990417 554.319458,355.040222 544.315430,346.428558 
	C540.773499,343.379639 537.598999,340.487122 532.666565,339.310608 
	C530.913757,338.892456 529.564819,333.624786 529.364746,330.485931 
	C528.895020,323.116852 529.059082,315.689331 529.368103,308.302277 
	C529.438599,306.618988 530.820679,304.605194 532.205383,303.510345 
	C533.005188,302.877991 535.108276,303.534332 536.465332,304.039368 
	C539.532349,305.180878 542.416565,306.849915 545.522339,307.845062 
	C565.182861,314.144562 580.470581,325.306854 587.745178,345.451874 
	C594.265076,363.507019 594.533936,381.119049 585.810425,398.894348 
	C581.290283,408.104797 575.971191,416.488647 567.850464,422.347321 
	C558.487793,429.102020 548.633484,435.561646 536.352661,436.077850 
	C534.216248,436.167664 532.085022,437.245056 529.985352,437.145996 
	C526.663513,436.989288 523.327759,436.408386 520.078735,435.657227 
	C517.518982,435.065369 515.109192,433.854828 512.583862,433.078278 
	C504.682861,430.648651 496.663788,428.559479 488.891479,425.776947 
	C485.893005,424.703430 483.150940,422.421173 480.778809,420.175446 
	C470.165039,410.127167 459.957428,399.635162 449.063873,389.907288 
	C446.322021,387.458801 441.594940,386.197296 437.765350,386.165314 
	C403.945648,385.882599 370.122620,386.000336 336.300568,386.000061 
	C303.861786,385.999756 271.420288,386.252136 238.985153,385.908112 
	C218.548492,385.691315 199.533386,391.066589 181.864212,400.438629 
	C173.381805,404.937836 166.026962,411.998779 159.052582,418.811829 
	C145.731201,431.825012 138.455933,448.329529 134.211990,466.231140 
	C131.004135,479.762299 132.392136,493.231415 134.606949,506.796204 
	C136.845398,520.505737 144.104523,531.414490 152.464890,541.827820 
	C156.158722,546.428711 159.706070,551.526611 164.417053,554.838013 
	C170.690735,559.247803 177.781174,562.808411 184.978729,565.516602 
	C195.423447,569.446533 206.552155,570.284302 217.693848,569.963318 
	C221.506363,569.853577 225.307022,569.331665 229.758392,569.109863 
	C230.935623,568.821777 231.467529,568.421875 231.999451,568.021973 
	C233.713043,568.013184 235.426605,568.004395 237.903229,568.086548 
	C239.489746,568.717163 240.321823,569.244141 241.135208,569.798584 
	C244.917191,572.376465 248.513870,575.308655 252.545776,577.404175 
	C254.685806,578.516357 257.930389,579.117737 258.893188,575.165649 
	C259.575928,572.363159 260.237457,569.555420 260.911285,566.738159 
	C259.591034,565.981567 258.238068,565.206238 257.940216,565.035522 
	C260.408691,561.519775 262.699463,558.257202 264.990234,554.994568 
	C266.482513,553.135254 267.974823,551.275940 270.124420,549.211609 
	C273.189728,550.278076 275.784424,551.292725 277.964783,552.877441 
	C281.833191,555.689026 282.826599,555.123779 284.153198,550.483215 
	C284.938995,547.734436 286.703583,544.628113 288.979919,543.107971 
	C291.675964,541.307678 292.819489,539.565247 293.149017,536.451782 
	C293.990295,528.503906 297.069458,526.522888 304.960571,528.352905 
	C305.995026,528.592773 307.016449,528.888855 308.043884,529.158875 
	C308.418518,528.846558 308.793121,528.534241 309.167725,528.221924 
	C307.910614,525.987732 306.743713,521.954590 305.377960,521.886047 
	C302.339355,521.733704 298.491394,522.781494 296.280914,524.783752 
	C293.433350,527.363037 292.478027,526.066895 290.991028,523.995422 
	C291.533783,522.512207 292.076538,521.028992 293.171600,519.186462 
	C297.060120,518.075378 297.815552,515.780273 298.071838,512.629639 
	C298.573944,506.457672 299.749359,500.338531 300.190857,494.164948 
	C300.309662,492.503510 298.790070,490.724915 298.022583,489.000092 
M277.452972,577.353882 
	C277.870148,577.091431 278.287292,576.828979 278.704468,576.566528 
	C276.773407,573.743835 274.842346,570.921204 272.911285,568.098511 
	C272.471222,568.324341 272.031158,568.550232 271.591095,568.776062 
	C271.709839,570.509338 271.981842,572.248474 271.915497,573.974609 
	C271.776093,577.602234 271.666321,581.182495 266.201233,580.566528 
	C265.156799,580.448792 262.743652,582.815674 262.879791,583.759644 
	C263.235748,586.227783 264.653290,588.542847 265.728729,591.112854 
	C268.860168,588.932495 271.001892,587.441223 273.143616,585.950012 
	C272.770142,585.697388 272.396667,585.444824 272.023193,585.192261 
	C273.630554,582.673767 275.237915,580.155273 277.452972,577.353882 
M421.192902,128.088348 
	C423.661011,127.452202 426.175690,126.955795 428.587830,126.151749 
	C434.149567,124.297798 434.982605,120.939392 431.427002,115.903885 
	C428.029480,117.162064 424.535370,118.103867 421.413483,119.751144 
	C419.686157,120.662582 418.174316,122.584976 417.414398,124.405983 
	C417.142090,125.058472 419.363190,126.751442 421.192902,128.088348 
M394.024109,126.211967 
	C399.396149,127.216530 394.764526,121.736404 397.751556,120.924294 
	C399.060211,121.295570 400.660156,121.749489 402.260071,122.203400 
	C402.449097,121.677429 402.638123,121.151459 402.827148,120.625488 
	C399.037384,119.211227 395.247650,117.796959 391.457886,116.382698 
	C390.933899,116.748947 390.409882,117.115204 389.885895,117.481453 
	C391.063232,120.274361 392.240570,123.067261 394.024109,126.211967 
M167.266403,576.238037 
	C165.304398,575.916321 163.269623,575.179077 161.420639,575.502747 
	C160.790817,575.613037 160.050919,578.544556 160.409637,579.911987 
	C160.793106,581.373840 162.414078,582.511108 163.494888,583.790100 
	C164.820358,582.146606 166.209824,580.548340 167.427261,578.828369 
	C167.740128,578.386353 167.510864,577.560547 167.266403,576.238037 
M485.420868,120.041977 
	C484.541840,121.561714 483.662842,123.081444 482.805176,124.564247 
	C482.050598,124.440033 481.550537,124.239822 481.087769,124.304901 
	C479.958160,124.463783 478.807800,124.648003 477.757538,125.057419 
	C477.539368,125.142479 477.557434,126.739792 477.740143,126.799217 
	C478.891876,127.173775 480.197113,127.678436 481.307709,127.447563 
	C483.391266,127.014420 485.603455,126.445770 487.323364,125.283920 
	C488.461517,124.515045 488.835114,122.614372 489.550964,121.220390 
	C488.377289,120.709908 487.203613,120.199425 485.420868,120.041977 
M113.787880,516.355164 
	C117.440414,519.051575 118.588715,515.998596 119.383553,513.549744 
	C119.755363,512.404175 118.651848,510.779694 118.216988,509.372284 
	C116.538887,510.841217 114.803062,512.252869 113.235207,513.831299 
	C112.948280,514.120117 113.344894,515.087891 113.787880,516.355164 
M522.940796,124.313461 
	C524.947937,125.079781 526.955139,125.846100 528.962280,126.612419 
	C529.291748,126.070732 529.621155,125.529053 529.950623,124.987373 
	C527.625183,123.495560 525.356812,121.892273 522.909607,120.638023 
	C522.562134,120.459915 521.345215,121.978081 520.530762,122.711159 
	C521.121033,123.261520 521.711243,123.811882 522.940796,124.313461 
M534.211487,124.236572 
	C533.573730,124.983376 532.935913,125.730179 532.298157,126.476974 
	C533.364624,127.091400 534.382935,128.004410 535.518921,128.187698 
	C536.045532,128.272675 536.801392,126.936813 537.453308,126.245071 
	C536.587891,125.545921 535.722534,124.846771 534.211487,124.236572 
M532.778442,309.971375 
	C534.581055,314.009644 534.975708,314.143799 539.083740,311.142334 
	C536.698120,310.503510 534.972839,310.041504 532.778442,309.971375 
M309.672394,114.470978 
	C308.376953,117.514473 308.404297,117.548447 313.451752,117.886154 
	C312.033783,116.383606 311.159790,115.457458 309.672394,114.470978 
M432.168121,129.913712 
	C432.500671,131.050354 432.833221,132.187012 433.165771,133.323669 
	C433.858490,133.040939 434.551178,132.758209 435.243866,132.475449 
	C434.400055,131.539841 433.556213,130.604233 432.168121,129.913712 
M443.010620,132.364456 
	C443.731628,132.062027 444.452606,131.759613 445.173615,131.457184 
	C444.632874,130.909439 444.092133,130.361694 443.551422,129.813965 
	C443.239868,130.529526 442.928345,131.245087 443.010620,132.364456 
M264.351074,140.387024 
	C264.516113,139.772476 264.681152,139.157928 264.846191,138.543381 
	C264.388123,138.570435 263.930054,138.597488 263.472015,138.624542 
	C263.602356,139.221710 263.732697,139.818878 264.351074,140.387024 
M295.752594,546.854187 
	C295.901794,546.962341 296.050995,547.070557 296.200195,547.178711 
	C296.106262,547.020752 296.012329,546.862793 295.752594,546.854187 
M386.854187,117.247383 
	C386.962341,117.098183 387.070496,116.948982 387.178650,116.799782 
	C387.020721,116.893707 386.862793,116.987640 386.854187,117.247383 
z"/>
<path fill="#59A5FA" opacity="1.000000" stroke="none" 
	d="
M583.992371,120.550331 
	C583.297913,119.437317 582.326965,117.936073 581.965942,116.300232 
	C580.931946,111.615112 578.933533,110.559837 574.662659,112.735054 
	C574.072571,113.035553 573.483948,113.592667 572.891602,113.596832 
	C563.248352,113.664558 553.604492,113.652184 543.960999,113.695602 
	C543.226562,113.698906 542.493347,113.985313 541.299622,114.237160 
	C544.283508,120.145340 549.550537,120.132790 554.521301,120.760216 
	C557.428101,121.127121 560.367859,121.402908 563.199646,122.098885 
	C564.145020,122.331230 564.801331,123.739990 565.589783,124.610977 
	C564.616455,125.362938 563.710999,126.639572 562.657959,126.775894 
	C558.141235,127.360619 553.574463,127.917412 549.040283,127.819351 
	C547.384583,127.783546 544.909668,126.262260 544.291809,124.794342 
	C542.228699,119.892570 537.660950,116.824020 532.778320,118.543762 
	C529.116516,119.833527 526.380615,119.406052 523.862305,116.529976 
	C519.325134,111.348282 512.781738,112.664009 508.029572,114.111290 
	C503.743866,115.416527 500.010071,114.480988 496.197968,114.512383 
	C483.840057,114.614159 471.475891,113.764214 459.109894,113.444946 
	C458.155121,113.420288 456.266113,114.858978 456.356689,115.300644 
	C456.683441,116.894287 457.459351,119.466614 458.449310,119.655182 
	C461.571594,120.249954 464.878571,119.790283 468.091278,120.036369 
	C469.378082,120.134933 470.605469,121.009354 471.859894,121.530624 
	C470.929504,122.976700 469.875336,125.731712 469.088745,125.657318 
	C463.819580,125.159058 458.607391,124.058449 452.859894,123.063797 
	C452.294556,124.330116 451.462860,126.193100 450.631012,128.056412 
	C445.520203,125.775284 442.848816,122.113152 441.826477,116.816765 
	C441.141327,113.267174 438.580017,112.274536 434.692749,112.417999 
	C425.310120,112.764275 415.898468,112.244888 406.498535,112.244598 
	C403.031158,112.244492 399.550140,113.056007 396.099030,112.915703 
	C387.093689,112.549599 378.102448,111.844902 369.102966,111.319595 
	C367.627441,111.233467 365.822113,110.839615 364.710785,111.499718 
	C359.833160,114.396912 355.205078,113.075218 350.362640,111.513733 
	C348.377563,110.873642 346.086823,111.069168 343.935730,111.075851 
	C334.863037,111.104019 325.788025,111.098190 316.718994,111.317390 
	C311.128937,111.452492 305.550934,112.168541 299.962158,112.248520 
	C296.202911,112.302307 292.434235,111.700035 288.334900,111.194977 
	C293.569641,110.333572 299.138519,109.096367 304.709076,109.088829 
	C394.076141,108.967911 483.443420,109.003288 572.810669,109.004585 
	C583.877563,109.004745 584.000549,109.130676 583.992371,120.550331 
z"/>
<path fill="#59A6FD" opacity="1.000000" stroke="none" 
	d="
M112.084686,562.336304 
	C114.454178,560.809021 116.912102,559.615601 120.342926,557.949768 
	C119.632607,554.671875 121.458244,551.148376 127.726936,548.656555 
	C120.882133,547.716309 120.853523,544.781738 121.437706,540.748840 
	C121.811691,538.166931 120.900032,534.876404 119.387589,532.734802 
	C118.442642,531.396729 115.324402,531.336792 113.150795,531.204102 
	C111.409767,531.097839 109.622681,531.745972 107.856033,532.059326 
	C107.831055,530.326782 107.114937,527.899231 107.968643,527.050354 
	C108.886841,526.137268 111.308823,526.458557 113.020149,526.674072 
	C117.762642,527.271301 122.481911,528.063293 127.196877,528.858215 
	C127.950027,528.985168 128.633667,529.524475 129.671982,530.030334 
	C128.813049,531.454285 128.105011,532.628052 127.416023,533.770264 
	C137.737183,541.902954 137.737183,541.902954 142.346191,538.667480 
	C144.454254,540.110107 146.562820,541.553040 148.961914,543.194824 
	C148.090912,546.209167 147.231689,549.692627 146.064987,553.069885 
	C145.001663,556.147888 143.190872,558.051514 139.319534,557.517883 
	C137.829147,557.312439 134.899872,558.727722 134.645126,559.859070 
	C133.344681,565.634155 126.573204,566.327332 124.561768,571.307617 
	C124.352898,571.824829 122.727364,571.769836 121.377396,571.992493 
	C118.054802,568.893066 115.113960,565.781616 112.084686,562.336304 
z"/>
<path fill="#59A5FA" opacity="1.000000" stroke="none" 
	d="
M282.613342,111.039291 
	C282.559662,111.899559 281.549927,112.975327 281.768982,113.655037 
	C283.463806,118.913353 282.952484,123.025238 276.973267,125.078072 
	C276.708466,125.168983 276.817963,127.562920 277.373840,128.525726 
	C278.073822,129.738129 279.413330,130.581268 281.180847,132.247238 
	C279.353912,133.120132 277.734344,134.534195 276.823914,134.170929 
	C275.618774,133.690079 274.262787,131.850174 274.204529,130.539536 
	C273.978729,125.463264 271.634918,124.148911 266.754425,124.475060 
	C263.299530,124.705948 259.737152,123.328598 256.163422,122.658020 
	C256.271423,128.445862 256.876984,128.738037 267.485291,127.536934 
	C264.404510,132.281830 261.815033,136.270050 259.225708,140.258041 
	C256.584290,140.580154 253.318146,141.106094 250.031219,141.339798 
	C247.292465,141.534546 245.374115,137.982788 246.728516,135.451874 
	C247.120071,134.720215 247.860229,134.079147 247.983505,133.322113 
	C248.174637,132.148499 247.973572,130.910995 247.938812,129.700592 
	C246.690216,129.739639 245.310760,129.448547 244.218369,129.881622 
	C241.317459,131.031693 238.540436,132.494308 235.354660,133.912445 
	C241.962875,129.154297 248.470306,123.355659 256.022369,119.737358 
	C264.251984,115.794434 273.450439,113.873642 282.613342,111.039291 
z"/>
<path fill="#59A5FA" opacity="1.000000" stroke="none" 
	d="
M184.283966,612.247986 
	C185.889740,612.003479 187.780106,612.003479 189.670410,611.996216 
	C191.469635,605.861084 195.802887,604.520630 200.958023,608.605469 
	C202.968826,610.198792 204.350891,609.967285 204.921219,607.486755 
	C205.741058,603.920837 207.716583,604.344910 210.534485,605.078491 
	C212.787888,605.665161 215.332123,605.089294 217.746262,605.117065 
	C219.976273,605.142761 222.882568,604.413086 224.316315,605.527466 
	C230.365372,610.229065 237.939682,608.228638 244.521530,610.608826 
	C246.784485,611.427124 250.220932,608.642273 253.220337,607.908020 
	C255.222260,607.417847 257.399200,607.642578 259.748901,607.773438 
	C253.240021,609.999573 246.534348,612.218323 239.699127,613.915466 
	C235.758499,614.893921 231.619537,615.335693 227.550522,615.481934 
	C218.352341,615.812561 209.122101,616.225220 199.944794,615.780701 
	C194.778412,615.530457 189.691360,613.642639 184.283966,612.247986 
z"/>
<path fill="#59A5FA" opacity="1.000000" stroke="none" 
	d="
M290.654785,524.087769 
	C292.478027,526.066895 293.433350,527.363037 296.280914,524.783752 
	C298.491394,522.781494 302.339355,521.733704 305.377960,521.886047 
	C306.743713,521.954590 307.910614,525.987732 309.167725,528.221924 
	C308.793121,528.534241 308.418518,528.846558 308.043884,529.158875 
	C307.016449,528.888855 305.995026,528.592773 304.960571,528.352905 
	C297.069458,526.522888 293.990295,528.503906 293.149017,536.451782 
	C292.819489,539.565247 291.675964,541.307678 288.979919,543.107971 
	C286.703583,544.628113 284.938995,547.734436 284.153198,550.483215 
	C282.826599,555.123779 281.833191,555.689026 277.964783,552.877441 
	C275.784424,551.292725 273.189728,550.278076 270.390808,549.002075 
	C274.791992,543.623840 279.692352,538.341309 284.329468,532.837036 
	C286.580048,530.165588 288.337677,527.078918 290.654785,524.087769 
z"/>
<path fill="#59A5FA" opacity="1.000000" stroke="none" 
	d="
M233.654388,134.077240 
	C234.544083,138.803268 234.686066,143.697235 235.756882,148.378723 
	C236.704208,152.520325 237.734818,156.351135 235.739212,158.951950 
	C231.643814,159.176178 228.605331,159.745377 225.688995,159.368774 
	C223.538284,159.091019 221.550613,157.570816 219.483673,156.618561 
	C217.582352,155.742645 215.672180,154.885941 213.387634,154.010254 
	C218.108719,148.401047 223.130997,142.728699 228.361816,137.255661 
	C229.665924,135.891159 231.642914,135.169754 233.654388,134.077240 
z"/>
<path fill="#59A5FA" opacity="1.000000" stroke="none" 
	d="
M264.640076,555.074707 
	C262.699463,558.257202 260.408691,561.519775 257.940216,565.035522 
	C258.238068,565.206238 259.591034,565.981567 260.911285,566.738159 
	C260.237457,569.555420 259.575928,572.363159 258.893188,575.165649 
	C257.930389,579.117737 254.685806,578.516357 252.545776,577.404175 
	C248.513870,575.308655 244.917191,572.376465 241.135208,569.798584 
	C240.321823,569.244141 239.489746,568.717163 238.331482,568.086304 
	C241.349747,566.540100 244.770599,565.221741 248.040588,563.599243 
	C253.507782,560.886719 258.878571,557.979919 264.640076,555.074707 
z"/>
<path fill="#59A5FA" opacity="1.000000" stroke="none" 
	d="
M569.234619,212.744690 
	C564.307861,209.364578 567.499695,206.027237 569.468811,202.721191 
	C570.044312,201.755005 571.445251,201.166534 571.752197,200.181885 
	C572.180725,198.806686 571.937622,197.222168 571.981812,195.727203 
	C570.800659,196.273071 569.559998,196.723648 568.465332,197.407837 
	C567.971130,197.716660 567.767700,198.490540 568.012268,198.080032 
	C564.173889,198.661148 561.146484,199.119461 558.442139,199.528885 
	C558.621460,197.330353 558.380188,194.239960 559.264099,191.514481 
	C559.883545,189.604645 561.869202,187.077957 563.548096,186.822784 
	C566.001587,186.449844 570.147705,187.066528 571.056213,188.679016 
	C573.300232,192.662033 575.489380,191.692688 578.652344,190.092941 
	C575.822266,197.496277 572.644531,204.992569 569.234619,212.744690 
z"/>
<path fill="#59A5FA" opacity="1.000000" stroke="none" 
	d="
M208.653778,164.082947 
	C210.694519,164.373184 212.398468,164.752441 214.799133,165.286774 
	C211.784378,175.274475 203.620605,179.946228 195.341522,184.912201 
	C197.174179,180.144180 198.982986,175.077774 201.649261,170.512146 
	C203.134811,167.968338 206.047455,166.257950 208.653778,164.082947 
z"/>
<path fill="#59A5FA" opacity="1.000000" stroke="none" 
	d="
M332.238159,539.726685 
	C331.650421,536.658081 331.301361,533.316162 330.902130,529.493530 
	C329.678040,529.963318 328.707581,530.487183 327.673370,530.696960 
	C326.155731,531.004883 324.322327,531.644714 323.143433,531.072266 
	C322.353973,530.688904 321.820190,528.114990 322.333527,527.121460 
	C323.019958,525.793030 324.809448,524.230835 326.163422,524.194641 
	C331.219330,524.059326 335.663635,522.781250 339.678406,519.124878 
	C337.489044,525.818481 334.982971,532.635925 332.238159,539.726685 
z"/>
<path fill="#5BA8FC" opacity="1.000000" stroke="none" 
	d="
M92.036476,523.387878 
	C95.115822,524.464111 99.485016,525.133423 101.042068,527.587219 
	C103.285889,531.123291 102.781006,535.841309 99.198044,539.700073 
	C96.690163,534.594360 94.380028,529.186279 92.036476,523.387878 
z"/>
<path fill="#59A5FA" opacity="1.000000" stroke="none" 
	d="
M535.806641,175.292816 
	C537.864746,176.377457 539.770874,177.703217 541.575195,179.155563 
	C542.372986,179.797699 543.710388,181.086090 543.536255,181.419342 
	C541.318604,185.663849 538.870544,189.788025 536.481140,193.942795 
	C535.969055,193.678864 535.457031,193.414932 534.944946,193.151001 
	C535.647278,190.645523 536.394592,188.151459 537.032898,185.629776 
	C537.352295,184.367874 537.472717,183.055618 537.683105,181.766144 
	C536.329834,182.103302 534.976562,182.440460 533.315308,182.888031 
	C533.875977,180.527451 534.744629,178.056458 535.806641,175.292816 
z"/>
<path fill="#59A5FA" opacity="1.000000" stroke="none" 
	d="
M156.193512,601.294189 
	C161.057236,602.458374 166.065689,604.823120 171.189362,605.106750 
	C176.296570,605.389587 178.900970,608.195374 181.880280,611.687012 
	C173.462433,608.525879 164.925583,605.054260 156.193512,601.294189 
z"/>
<path fill="#59A5FA" opacity="1.000000" stroke="none" 
	d="
M234.988937,277.531219 
	C234.333145,276.766357 233.133972,275.541290 233.114990,274.298218 
	C232.963104,264.358765 232.996841,254.415558 233.093796,244.474670 
	C233.103867,243.442719 233.895447,242.418396 234.654449,241.195618 
	C234.987106,253.021378 234.989746,265.042023 234.988937,277.531219 
z"/>
<path fill="#59A5FA" opacity="1.000000" stroke="none" 
	d="
M298.016876,489.446533 
	C298.790070,490.724915 300.309662,492.503510 300.190857,494.164948 
	C299.749359,500.338531 298.573944,506.457672 298.071838,512.629639 
	C297.815552,515.780273 297.060120,518.075378 293.360046,518.908691 
	C294.667816,509.291138 296.339478,499.592072 298.016876,489.446533 
z"/>
<path fill="#59A5FA" opacity="1.000000" stroke="none" 
	d="
M234.986313,311.528625 
	C234.321976,310.263550 233.214783,308.563599 233.083130,306.791138 
	C232.593216,300.195251 232.246994,293.575592 232.245941,286.964752 
	C232.245636,285.073029 233.593140,283.181061 234.652695,281.144531 
	C234.985596,291.020020 234.988434,301.040253 234.986313,311.528625 
z"/>
<path fill="#59A5FA" opacity="1.000000" stroke="none" 
	d="
M302.282227,581.817871 
	C302.648407,580.196228 303.154480,578.325378 303.973419,576.603394 
	C305.363953,573.679749 306.951752,570.849854 308.622620,567.664124 
	C310.185883,567.317871 312.749451,566.750061 315.656494,566.091370 
	C311.520966,571.212158 307.041931,576.423889 302.282227,581.817871 
z"/>
<path fill="#59A5FA" opacity="1.000000" stroke="none" 
	d="
M272.345642,602.922852 
	C274.134796,598.423950 277.366943,595.222473 282.452698,593.941101 
	C285.120728,593.268799 287.642120,592.014709 290.615479,591.012878 
	C284.897522,594.950195 278.793762,598.897949 272.345642,602.922852 
z"/>
<path fill="#59A5FA" opacity="1.000000" stroke="none" 
	d="
M190.661682,207.190186 
	C191.166626,211.956055 191.541351,216.921036 191.413391,221.873016 
	C191.364929,223.748657 190.157333,225.594345 189.238159,227.727051 
	C189.442612,221.128311 189.886978,214.256210 190.661682,207.190186 
z"/>
<path fill="#59A5FA" opacity="1.000000" stroke="none" 
	d="
M188.796616,231.359589 
	C189.132812,237.759888 189.267609,244.520447 189.199966,251.640900 
	C188.863419,245.240479 188.729324,238.480164 188.796616,231.359589 
z"/>
<path fill="#59A5FA" opacity="1.000000" stroke="none" 
	d="
M344.983521,452.531555 
	C344.323364,451.620728 343.130035,450.249115 343.111694,448.861969 
	C343.049438,444.150757 343.402344,439.434052 343.798767,434.359711 
	C344.330200,440.021179 344.659515,446.042419 344.983521,452.531555 
z"/>
<path fill="#59A5FA" opacity="1.000000" stroke="none" 
	d="
M344.202271,491.640472 
	C344.125275,486.438293 344.249664,480.876617 344.678894,475.157532 
	C344.790375,480.427094 344.597046,485.854004 344.202271,491.640472 
z"/>
<path fill="#59A5FA" opacity="1.000000" stroke="none" 
	d="
M583.992920,155.539429 
	C580.625244,152.304611 581.471802,148.371811 583.663452,144.190872 
	C583.992249,147.693008 583.993652,151.385941 583.992920,155.539429 
z"/>
<path fill="#59A5FA" opacity="1.000000" stroke="none" 
	d="
M234.987061,235.545502 
	C231.741592,232.993698 232.494415,229.720245 234.660309,226.187103 
	C234.985306,229.030869 234.988113,232.061203 234.987061,235.545502 
z"/>
<path fill="#59A5FA" opacity="1.000000" stroke="none" 
	d="
M512.453735,155.995575 
	C515.003723,152.733322 518.279114,153.492371 521.814453,155.667969 
	C518.969727,155.993240 515.938782,155.995071 512.453735,155.995575 
z"/>
<path fill="#59A5FA" opacity="1.000000" stroke="none" 
	d="
M188.015228,308.436279 
	C188.476059,310.776459 188.931793,313.551544 189.191162,316.663574 
	C188.666565,314.290741 188.338348,311.580933 188.015228,308.436279 
z"/>
<path fill="#59A5FA" opacity="1.000000" stroke="none" 
	d="
M188.800873,258.340942 
	C188.882141,260.548401 188.766510,263.097198 188.337067,265.822144 
	C188.216812,263.559601 188.410385,261.120972 188.800873,258.340942 
z"/>
<path fill="#59A5FA" opacity="1.000000" stroke="none" 
	d="
M271.364594,162.927017 
	C273.482880,161.909744 275.957214,160.814423 278.716064,159.861694 
	C276.573944,160.952515 274.147278,161.900742 271.364594,162.927017 
z"/>
<path fill="#59A5FA" opacity="1.000000" stroke="none" 
	d="
M582.193848,173.695740 
	C582.449707,171.757233 582.896118,169.513809 583.659180,167.135406 
	C583.445435,169.130585 582.914856,171.260696 582.193848,173.695740 
z"/>
<path fill="#59A5FA" opacity="1.000000" stroke="none" 
	d="
M198.371674,319.986145 
	C199.816818,319.234985 201.632355,318.477081 203.723724,317.859863 
	C202.247070,318.660156 200.494568,319.319794 198.371674,319.986145 
z"/>
<path fill="#59A5FA" opacity="1.000000" stroke="none" 
	d="
M285.395416,157.999405 
	C286.796509,157.541595 288.592987,157.083176 290.694763,156.812683 
	C289.263611,157.333344 287.527222,157.666077 285.395416,157.999405 
z"/>
<path fill="#59A5FA" opacity="1.000000" stroke="none" 
	d="
M236.228271,208.745239 
	C236.449570,207.396439 236.899902,205.793594 237.673004,204.094925 
	C237.482925,205.496475 236.970108,206.993820 236.228271,208.745239 
z"/>
<path fill="#59A5FA" opacity="1.000000" stroke="none" 
	d="
M192.678436,200.159760 
	C192.536453,201.554291 192.082550,203.113144 191.315826,204.835022 
	C191.457520,203.440048 191.912003,201.882065 192.678436,200.159760 
z"/>
<path fill="#59A5FA" opacity="1.000000" stroke="none" 
	d="
M189.087006,319.311096 
	C190.177505,319.522064 191.352112,320.042908 192.763885,320.784790 
	C191.724396,320.544159 190.447754,320.082550 189.087006,319.311096 
z"/>
<path fill="#59A5FA" opacity="1.000000" stroke="none" 
	d="
M340.203613,516.730591 
	C340.473206,515.416748 340.942566,513.832886 341.699615,512.124756 
	C341.459351,513.487183 340.931366,514.973877 340.203613,516.730591 
z"/>
<path fill="#59A5FA" opacity="1.000000" stroke="none" 
	d="
M304.640137,410.019165 
	C303.585297,410.673065 302.169434,411.331421 300.376343,411.990540 
	C301.425751,411.335388 302.852448,410.679504 304.640137,410.019165 
z"/>
<path fill="#59A5FA" opacity="1.000000" stroke="none" 
	d="
M298.022339,482.401367 
	C298.215973,483.244537 298.402618,484.487244 298.308807,485.864075 
	C298.024017,484.932465 298.019653,483.866699 298.022339,482.401367 
z"/>
<path fill="#59A5FA" opacity="1.000000" stroke="none" 
	d="
M330.601562,410.012268 
	C329.757141,410.204224 328.512512,410.392761 327.133911,410.299255 
	C328.067078,410.014435 329.134216,410.011627 330.601562,410.012268 
z"/>
<path fill="#59A5FA" opacity="1.000000" stroke="none" 
	d="
M298.821350,453.259552 
	C299.116272,454.160126 299.234802,455.320526 299.176056,456.740448 
	C298.880859,455.839783 298.762939,454.679565 298.821350,453.259552 
z"/>
<path fill="#59A5FA" opacity="1.000000" stroke="none" 
	d="
M344.984192,466.625122 
	C344.804718,466.074585 344.629700,465.149017 344.717621,464.111755 
	C344.983276,464.750092 344.985992,465.500122 344.984192,466.625122 
z"/>
<path fill="#59A5FA" opacity="1.000000" stroke="none" 
	d="
M344.163452,431.773010 
	C343.892456,431.151276 343.783875,430.302551 343.838257,429.226868 
	C344.109436,429.848602 344.217682,430.697296 344.163452,431.773010 
z"/>
<path fill="#59A5FA" opacity="1.000000" stroke="none" 
	d="
M344.162659,417.773071 
	C343.892426,417.150879 343.784882,416.301727 343.840942,415.225922 
	C344.111481,415.848206 344.218414,416.697174 344.162659,417.773071 
z"/>
<path fill="#59A5FA" opacity="1.000000" stroke="none" 
	d="
M188.016434,303.374969 
	C188.196198,303.925385 188.371597,304.850800 188.284378,305.888000 
	C188.018524,305.249847 188.015289,304.499878 188.016434,303.374969 
z"/>
<path fill="#59A5FA" opacity="1.000000" stroke="none" 
	d="
M212.375732,316.994263 
	C212.926285,316.815460 213.851715,316.638214 214.888458,316.725189 
	C214.250076,316.991547 213.500336,316.993683 212.375732,316.994263 
z"/>
<path fill="#59A5FA" opacity="1.000000" stroke="none" 
	d="
M298.822937,468.220428 
	C298.825897,468.616028 298.653015,469.232056 298.255127,469.924255 
	C298.235748,469.480591 298.441406,468.960724 298.822937,468.220428 
z"/>
<path fill="#59A5FA" opacity="1.000000" stroke="none" 
	d="
M194.720123,189.104004 
	C194.521317,189.591644 194.045868,190.186920 193.295593,190.890472 
	C193.495010,190.403030 193.969254,189.807327 194.720123,189.104004 
z"/>
<path fill="#59A5FA" opacity="1.000000" stroke="none" 
	d="
M536.822815,171.220795 
	C536.820435,171.617081 536.640808,172.234009 536.233032,172.925751 
	C536.218445,172.480865 536.432007,171.961166 536.822815,171.220795 
z"/>
<path fill="#59A5FA" opacity="1.000000" stroke="none" 
	d="
M235.983368,214.667816 
	C235.835541,214.389908 235.691650,213.778168 235.767715,213.082504 
	C235.987549,213.443726 235.987442,213.888855 235.983368,214.667816 
z"/>
<path fill="#59A5FA" opacity="1.000000" stroke="none" 
	d="
M231.725311,568.088562 
	C231.467529,568.421875 230.935623,568.821777 230.201599,569.109131 
	C230.483398,568.716125 230.967285,568.435669 231.725311,568.088562 
z"/>
<path fill="#59A5FA" opacity="1.000000" stroke="none" 
	d="
M444.332947,155.994888 
	C444.610687,155.846481 445.221985,155.699158 445.917053,155.772675 
	C445.556000,155.994339 445.111267,155.995148 444.332947,155.994888 
z"/>
<path fill="#59A5FA" opacity="1.000000" stroke="none" 
	d="
M188.014038,289.333130 
	C188.163620,289.610474 188.310654,290.221222 188.238556,290.916077 
	C188.016754,290.555603 188.014114,290.111084 188.014038,289.333130 
z"/>
<path fill="#59A5FA" opacity="1.000000" stroke="none" 
	d="
M277.149109,577.495361 
	C275.237915,580.155273 273.630554,582.673767 272.023193,585.192261 
	C272.396667,585.444824 272.770142,585.697388 273.143616,585.950012 
	C271.001892,587.441223 268.860168,588.932495 265.728729,591.112854 
	C264.653290,588.542847 263.235748,586.227783 262.879791,583.759644 
	C262.743652,582.815674 265.156799,580.448792 266.201233,580.566528 
	C271.666321,581.182495 271.776093,577.602234 271.915497,573.974609 
	C271.981842,572.248474 271.709839,570.509338 271.591095,568.776062 
	C272.031158,568.550232 272.471222,568.324341 272.911285,568.098511 
	C274.842346,570.921204 276.773407,573.743835 278.704468,576.566528 
	C278.287292,576.828979 277.870148,577.091431 277.149109,577.495361 
z"/>
<path fill="#59A5FA" opacity="1.000000" stroke="none" 
	d="
M420.819580,128.028931 
	C419.363190,126.751442 417.142090,125.058472 417.414398,124.405983 
	C418.174316,122.584976 419.686157,120.662582 421.413483,119.751144 
	C424.535370,118.103867 428.029480,117.162064 431.427002,115.903885 
	C434.982605,120.939392 434.149567,124.297798 428.587830,126.151749 
	C426.175690,126.955795 423.661011,127.452202 420.819580,128.028931 
z"/>
<path fill="#59A5FA" opacity="1.000000" stroke="none" 
	d="
M393.721008,126.036072 
	C392.240570,123.067261 391.063232,120.274361 389.885895,117.481453 
	C390.409882,117.115204 390.933899,116.748947 391.457886,116.382698 
	C395.247650,117.796959 399.037384,119.211227 402.827148,120.625488 
	C402.638123,121.151459 402.449097,121.677429 402.260071,122.203400 
	C400.660156,121.749489 399.060211,121.295570 397.751556,120.924294 
	C394.764526,121.736404 399.396149,127.216530 393.721008,126.036072 
z"/>
<path fill="#58A6FD" opacity="1.000000" stroke="none" 
	d="
M167.398529,576.574585 
	C167.510864,577.560547 167.740128,578.386353 167.427261,578.828369 
	C166.209824,580.548340 164.820358,582.146606 163.494904,583.790100 
	C162.414078,582.511108 160.793106,581.373840 160.409637,579.911987 
	C160.050919,578.544556 160.790817,575.613037 161.420639,575.502747 
	C163.269623,575.179077 165.304398,575.916321 167.398529,576.574585 
z"/>
<path fill="#59A5FA" opacity="1.000000" stroke="none" 
	d="
M485.725403,119.865463 
	C487.203613,120.199425 488.377289,120.709908 489.550964,121.220398 
	C488.835114,122.614372 488.461517,124.515045 487.323364,125.283920 
	C485.603455,126.445770 483.391266,127.014420 481.307709,127.447563 
	C480.197113,127.678436 478.891876,127.173775 477.740143,126.799217 
	C477.557434,126.739792 477.539368,125.142479 477.757538,125.057419 
	C478.807800,124.648003 479.958160,124.463783 481.087769,124.304901 
	C481.550537,124.239822 482.050598,124.440033 482.805176,124.564247 
	C483.662842,123.081444 484.541840,121.561714 485.725403,119.865463 
z"/>
<path fill="#58A6FD" opacity="1.000000" stroke="none" 
	d="
M113.606941,516.048706 
	C113.344894,515.087891 112.948280,514.120117 113.235207,513.831299 
	C114.803062,512.252869 116.538887,510.841217 118.216988,509.372284 
	C118.651848,510.779694 119.755363,512.404175 119.383553,513.549744 
	C118.588715,515.998596 117.440414,519.051575 113.606941,516.048706 
z"/>
<path fill="#59A5FA" opacity="1.000000" stroke="none" 
	d="
M522.621094,124.337852 
	C521.711243,123.811882 521.121033,123.261520 520.530762,122.711159 
	C521.345215,121.978081 522.562134,120.459915 522.909607,120.638023 
	C525.356812,121.892273 527.625183,123.495560 529.950623,124.987373 
	C529.621155,125.529053 529.291748,126.070732 528.962280,126.612419 
	C526.955139,125.846100 524.947937,125.079781 522.621094,124.337852 
z"/>
<path fill="#59A5FA" opacity="1.000000" stroke="none" 
	d="
M534.534302,124.192093 
	C535.722534,124.846771 536.587891,125.545921 537.453308,126.245087 
	C536.801392,126.936813 536.045532,128.272675 535.518921,128.187698 
	C534.382935,128.004410 533.364624,127.091400 532.298157,126.476974 
	C532.935913,125.730179 533.573730,124.983376 534.534302,124.192093 
z"/>
<path fill="#59A3F5" opacity="1.000000" stroke="none" 
	d="
M533.012939,309.775452 
	C534.972839,310.041504 536.698120,310.503510 539.083740,311.142334 
	C534.975708,314.143799 534.581055,314.009644 533.012939,309.775452 
z"/>
<path fill="#59A5FA" opacity="1.000000" stroke="none" 
	d="
M309.979065,114.501144 
	C311.159790,115.457458 312.033783,116.383606 313.451752,117.886154 
	C308.404297,117.548447 308.376953,117.514473 309.979065,114.501144 
z"/>
<path fill="#59A5FA" opacity="1.000000" stroke="none" 
	d="
M432.440247,129.791168 
	C433.556213,130.604233 434.400055,131.539841 435.243866,132.475464 
	C434.551178,132.758209 433.858490,133.040939 433.165771,133.323669 
	C432.833221,132.187012 432.500671,131.050354 432.440247,129.791168 
z"/>
<path fill="#59A5FA" opacity="1.000000" stroke="none" 
	d="
M442.813721,132.162537 
	C442.928345,131.245087 443.239868,130.529526 443.551392,129.813965 
	C444.092133,130.361694 444.632874,130.909439 445.173615,131.457184 
	C444.452606,131.759613 443.731628,132.062027 442.813721,132.162537 
z"/>
<path fill="#59A5FA" opacity="1.000000" stroke="none" 
	d="
M264.107056,140.401535 
	C263.732697,139.818878 263.602356,139.221710 263.471985,138.624542 
	C263.930054,138.597488 264.388123,138.570435 264.846191,138.543381 
	C264.681152,139.157928 264.516113,139.772476 264.107056,140.401535 
z"/>
<path fill="#59A5FA" opacity="1.000000" stroke="none" 
	d="
M295.835510,546.779541 
	C296.012329,546.862793 296.106262,547.020752 296.200195,547.178711 
	C296.050995,547.070557 295.901794,546.962341 295.835510,546.779541 
z"/>
<path fill="#59A5FA" opacity="1.000000" stroke="none" 
	d="
M386.779541,117.164474 
	C386.862793,116.987640 387.020721,116.893707 387.178650,116.799789 
	C387.070496,116.948982 386.962341,117.098183 386.779541,117.164474 
z"/>
</svg>